# xmcd CD database file
#
# Track frame offsets:
#	150
#	23663
#	53328
#	79484
#	114896
#	146547
#	149669
#	185912
#	228908
#	234936
#	262474
#
# Disc length: 3893 seconds
#
# Revision: 0
# Processed by: cddbd v1.5.2PL0 Copyright (c) Steve Scherf et al.
# Submitted via: CDex 1.70beta2
#
DISCID=980f330b
DTITLE=Noteworks - Noteworks
DYEAR=2007
DGENRE=Jazz
TTITLE0=Better Days Ahead
TTITLE1=My Cherie Amour
TTITLE2=Early AM Attitude
TTITLE3=I Love You
TTITLE4=How Insensitive
TTITLE5=Interlude...
TTITLE6=Affirmation
TTITLE7=Valse Hot
TTITLE8=Interlude...
TTITLE9=The Girl From Ipanema
TTITLE10=Footprints
EXTD=YEAR: 2007
EXTT0=
EXTT1=
EXTT2=
EXTT3=
EXTT4=
EXTT5=
EXTT6=
EXTT7=
EXTT8=
EXTT9=
EXTT10=
PLAYORDER=
